<svg width="20" height="19" viewBox="0 0 20 19"  xmlns="http://www.w3.org/2000/svg">
    <path d="M2.2628 8.99998H0.285522L3.29831 0.272705H5.67615L8.68467 8.99998H6.7074L4.52132 2.26702H4.45314L2.2628 8.99998ZM2.13922 5.56958H6.80967V7.00992H2.13922V5.56958Z" />
    <path d="M9.7951 8.99998V0.272705H16.2894C16.9315 0.272705 17.467 0.367876 17.896 0.558217C18.3249 0.748558 18.6474 1.01276 18.8633 1.35083C19.0792 1.68606 19.1871 2.07242 19.1871 2.50992C19.1871 2.85083 19.119 3.15055 18.9826 3.40907C18.8462 3.66475 18.6587 3.87498 18.4201 4.03975C18.1843 4.20168 17.9144 4.31674 17.6104 4.38492V4.47015C17.9428 4.48435 18.2539 4.5781 18.5437 4.7514C18.8363 4.92469 19.0735 5.16759 19.2553 5.48009C19.4371 5.78975 19.5281 6.15907 19.5281 6.58805C19.5281 7.05111 19.413 7.46447 19.1829 7.8281C18.9556 8.1889 18.619 8.47441 18.1729 8.68464C17.7269 8.89486 17.1772 8.99998 16.5238 8.99998H9.7951ZM11.6403 7.49146H16.1445C16.6587 7.49146 17.0337 7.39344 17.2695 7.19742C17.5053 6.99856 17.6232 6.73435 17.6232 6.40481C17.6232 6.16333 17.565 5.95026 17.4485 5.7656C17.332 5.58094 17.1658 5.43606 16.9499 5.33094C16.7369 5.22583 16.4826 5.17327 16.1871 5.17327H11.6403V7.49146ZM11.6403 3.92469H16.0082C16.261 3.92469 16.4854 3.88066 16.6815 3.79259C16.8803 3.70168 17.0366 3.57384 17.1502 3.40907C17.2667 3.2443 17.3249 3.04685 17.3249 2.81674C17.3249 2.5014 17.2127 2.24714 16.9883 2.05396C16.7667 1.86077 16.4513 1.76418 16.0423 1.76418H11.6403V3.92469Z" />
    <path d="M0.758534 19V10.2727H7.25285C7.8949 10.2727 8.43041 10.3679 8.85939 10.5582C9.28836 10.7486 9.61081 11.0128 9.82672 11.3508C10.0426 11.6861 10.1506 12.0724 10.1506 12.5099C10.1506 12.8508 10.0824 13.1505 9.94603 13.4091C9.80967 13.6648 9.62217 13.875 9.38353 14.0398C9.14774 14.2017 8.87785 14.3167 8.57388 14.3849V14.4701C8.90626 14.4844 9.21734 14.5781 9.50711 14.7514C9.79973 14.9247 10.0369 15.1676 10.2188 15.4801C10.4006 15.7898 10.4915 16.1591 10.4915 16.588C10.4915 17.0511 10.3764 17.4645 10.1463 17.8281C9.91905 18.1889 9.5824 18.4744 9.13637 18.6846C8.69035 18.8949 8.14064 19 7.48723 19H0.758534ZM2.6037 17.4915H7.10797C7.62217 17.4915 7.99717 17.3934 8.23297 17.1974C8.46876 16.9986 8.58666 16.7344 8.58666 16.4048C8.58666 16.1633 8.52842 15.9503 8.41194 15.7656C8.29547 15.5809 8.12927 15.4361 7.91336 15.3309C7.7003 15.2258 7.44603 15.1733 7.15058 15.1733H2.6037V17.4915ZM2.6037 13.9247H6.9716C7.22444 13.9247 7.44887 13.8807 7.6449 13.7926C7.84376 13.7017 8.00001 13.5738 8.11365 13.4091C8.23012 13.2443 8.28836 13.0469 8.28836 12.8167C8.28836 12.5014 8.17615 12.2471 7.95172 12.054C7.73012 11.8608 7.41478 11.7642 7.00569 11.7642H2.6037V13.9247Z" />
    <path d="M11.2408 10.2727H13.3075L15.2976 14.0312H15.3828L17.3729 10.2727H19.4396L16.2564 15.9148V19H14.424V15.9148L11.2408 10.2727Z" />
</svg>